<?xml version="1.0" encoding="UTF-8" standalone="no"?>
<svg
   xmlns:dc="http://purl.org/dc/elements/1.1/"
   xmlns:cc="http://creativecommons.org/ns#"
   xmlns:rdf="http://www.w3.org/1999/02/22-rdf-syntax-ns#"
   xmlns:svg="http://www.w3.org/2000/svg"
   xmlns="http://www.w3.org/2000/svg"
   xmlns:xlink="http://www.w3.org/1999/xlink"
   xmlns:sodipodi="http://sodipodi.sourceforge.net/DTD/sodipodi-0.dtd"
   xmlns:inkscape="http://www.inkscape.org/namespaces/inkscape"
   width="1000"
   height="1000"
   viewBox="0 0 264.58334 264.58335"
   version="1.1"
   id="svg8"
   inkscape:version="1.0.1 (3bc2e813f5, 2020-09-07)"
   sodipodi:docname="drawing.svg">
  <defs
     id="defs2">
    <linearGradient
       inkscape:collect="always"
       id="linearGradient3128">
      <stop
         style="stop-color:#d3b338;stop-opacity:1"
         offset="0"
         id="stop3124" />
      <stop
         style="stop-color:#ae5403;stop-opacity:1"
         offset="1"
         id="stop3126" />
    </linearGradient>
    <linearGradient
       inkscape:collect="always"
       id="linearGradient3064">
      <stop
         style="stop-color:#ffffff;stop-opacity:1"
         offset="0"
         id="stop3060" />
      <stop
         style="stop-color:#060808;stop-opacity:1"
         offset="1"
         id="stop3062" />
    </linearGradient>
    <inkscape:perspective
       sodipodi:type="inkscape:persp3d"
       inkscape:vp_x="0 : 313.08336 : 1"
       inkscape:vp_y="0 : 1000.0001 : 0"
       inkscape:vp_z="210.00001 : 313.08335 : 1"
       inkscape:persp3d-origin="105 : 263.58335 : 1"
       id="perspective12" />
    <linearGradient
       inkscape:collect="always"
       xlink:href="#linearGradient3128"
       id="linearGradient3051"
       gradientUnits="userSpaceOnUse"
       gradientTransform="matrix(3.7795276,0,0,3.7795276,500.45899,-76.658191)"
       x1="132.17023"
       y1="179.03249"
       x2="-6.7360196"
       y2="93.0429" />
    <linearGradient
       inkscape:collect="always"
       xlink:href="#linearGradient3128"
       id="linearGradient3057"
       gradientUnits="userSpaceOnUse"
       gradientTransform="matrix(3.7795276,0,0,3.7795276,0.45898946,-76.658192)"
       x1="-13.350608"
       y1="192.26166"
       x2="138.78481"
       y2="106.27206" />
    <linearGradient
       inkscape:collect="always"
       xlink:href="#linearGradient3064"
       id="linearGradient3122"
       gradientUnits="userSpaceOnUse"
       gradientTransform="matrix(3.5459309,0,0,5.6692913,30.90288,-212.50007)"
       x1="132.29167"
       y1="46.302097"
       x2="132.29167"
       y2="205.05211" />
  </defs>
  <sodipodi:namedview
     id="base"
     pagecolor="#000000"
     bordercolor="#666666"
     borderopacity="1"
     inkscape:pageopacity="0"
     inkscape:pageshadow="2"
     inkscape:zoom="1"
     inkscape:cx="64.614182"
     inkscape:cy="611.51558"
     inkscape:document-units="mm"
     inkscape:current-layer="g3041"
     inkscape:document-rotation="0"
     showgrid="true"
     inkscape:window-width="3440"
     inkscape:window-height="1387"
     inkscape:window-x="1432"
     inkscape:window-y="483"
     inkscape:window-maximized="1"
     inkscape:lockguides="false"
     inkscape:pagecheckerboard="false"
     showguides="false"
     units="px"
     inkscape:snap-grids="true"
     inkscape:guide-bbox="true">
    <inkscape:grid
       type="xygrid"
       id="grid2853"
       spacingx="0.26458334"
       spacingy="0.26458334"
       empspacing="25"
       dotted="true"
       visible="true"
       enabled="false" />
  </sodipodi:namedview>
  <metadata
     id="metadata5">
    <rdf:RDF>
      <cc:Work
         rdf:about="">
        <dc:format>image/svg+xml</dc:format>
        <dc:type
           rdf:resource="http://purl.org/dc/dcmitype/StillImage" />
        <dc:title></dc:title>
      </cc:Work>
    </rdf:RDF>
  </metadata>
  <g
     inkscape:label="Layer 1"
     inkscape:groupmode="layer"
     id="g3041"
     style="display:inline">
    <path class="O"
       id="path3035"
       clip-path="none"
       style="opacity:1;fill:url(#linearGradient3057);fill-opacity:1;stroke-width:1.00157;stroke-miterlimit:4;stroke-dasharray:none"
       d="M 212.64453,178.98242 A 250.00001,250.00001 0 0 0 0.47851562,427.48438 250.00001,250.00001 0 0 0 251.16406,676.10352 250.00001,250.00001 0 0 0 375.00781,642.87891 L 357.8125,593.75195 A 200.00001,200.00001 0 0 1 251.02344,624.99805 200.00001,200.00001 0 0 1 50.472656,426.10352 200.00001,200.00001 0 0 1 229.14844,226.13867 Z"
       transform="scale(0.26458333)" />
    <path class="WV"
       id="path3037"
       clip-path="none"
       style="opacity:1;fill:url(#linearGradient3051);fill-opacity:1;stroke-width:1.00157;stroke-miterlimit:4;stroke-dasharray:none"
       d="m 787.4043,178.8457 -16.51953,47.19922 a 200.00001,200.00001 0 0 1 150.57031,95.20899 l 42.80469,-24.74805 A 250.00001,250.00001 0 0 0 787.4043,178.8457 Z m 122.33593,367.12305 a 200.00001,200.00001 0 0 1 -158.71679,79.0293 200.00001,200.00001 0 0 1 -108.66406,-31.73828 l -17.20704,49.16406 a 250.00001,250.00001 0 0 0 126.01172,33.67969 250.00001,250.00001 0 0 0 202.73438,-104.67774 z"
       transform="scale(0.26458333)" />
    <path class="C"
       id="path3054"
       style="opacity:1;fill:url(#linearGradient3122);fill-opacity:1;stroke-width:1.18816;stroke-miterlimit:4;stroke-dasharray:none"
       inkscape:transform-center-x="1.3489007e-05"
       inkscape:transform-center-y="39.687502"
       d="m 175,50 197.57227,547.125 h 46.41601 L 500,500 l 80.86523,97.125 h 46.5625 L 825,50 H 779.86133 L 594.46875,563.39648 500.08398,450.0332 405.53125,563.39453 220.13867,50 Z M 578.36719,607.98242 500,825 446.75195,677.54492 406.8457,692.03516 500,950 623.50586,607.98242 Z"
       transform="scale(0.26458333)" />
  </g>
</svg>
